<?xml version="1.0" encoding="utf-8"?>
<!-- Generator: Adobe Illustrator 23.0.0, SVG Export Plug-In . SVG Version: 6.00 Build 0)  -->
<svg version="1.1"
	 id="svg5121" xmlns:cc="http://creativecommons.org/ns#" xmlns:dc="http://purl.org/dc/elements/1.1/" xmlns:rdf="http://www.w3.org/1999/02/22-rdf-syntax-ns#" xmlns:svg="http://www.w3.org/2000/svg"
	 xmlns="http://www.w3.org/2000/svg" xmlns:xlink="http://www.w3.org/1999/xlink" x="0px" y="0px" viewBox="0 0 380 242.6"
	 style="enable-background:new 0 0 380 242.6;" xml:space="preserve">
<style type="text/css">
	.st0{fill:#FFFFFF;stroke:#000000;stroke-miterlimit:10;}
	.st1{fill:#FFFFFF;stroke:#000000;stroke-width:0.25;stroke-miterlimit:10;}
</style>
<g>
	<path class="st0" d="M102.2,154.6v2.3c0,2.4-0.1,5.2-0.2,8.5s-0.3,5.5-0.6,6.9c-0.1,0.7-0.4,1.4-0.8,1.9c-0.3,0.4-0.7,0.7-1.2,1
		c-0.7,0.3-1.5,0.5-2.3,0.5s-1.6-0.1-2.5-0.3s-2.1-0.6-3.6-1.1c0.2,2.1,0.3,4.3,0.4,6.5c3.1,0.7,5.8,1.1,8.2,1.1
		c1.3,0,2.5-0.1,3.6-0.4c1-0.2,2-0.6,2.9-1.1c0.7-0.3,1.3-0.7,1.7-1.2c0.4-0.4,0.7-0.8,1-1.3s0.5-1.1,0.7-1.9
		c0.2-0.8,0.3-2.3,0.3-4.6c0.1-2.9,0.2-5.6,0.3-8.1l0.6-8.6c-2.1,0-3.6,0-4.4,0C105.7,154.7,104.3,154.7,102.2,154.6z"/>
	<path class="st0" d="M130.5,161.6c-1.5-0.5-3-0.7-4.7-0.7s-3.4,0.3-5,0.8s-2.9,1.3-4,2.4c-1.1,1-1.9,2.2-2.4,3.5s-0.8,2.6-0.8,4.1
		s0.3,2.8,0.8,4.1s1.3,2.4,2.3,3.3c1,0.9,2.3,1.6,3.8,2.1s3.1,0.7,4.8,0.7c1.8,0,3.5-0.3,5.1-0.8c1.6-0.5,2.9-1.4,4-2.5
		c1-1.1,1.8-2.3,2.2-3.5c0.4-1.3,0.7-2.6,0.7-4s-0.2-2.8-0.7-4s-1.2-2.3-2.3-3.3C133.2,162.8,132,162.1,130.5,161.6z M129,173.7
		c-0.3,0.9-0.8,1.5-1.5,1.9s-1.4,0.7-2.2,0.7c-1.1,0-2-0.4-2.7-1.1c-0.7-0.8-1.1-1.9-1.1-3.3c0-1,0.2-1.9,0.5-2.7s0.8-1.5,1.5-1.9
		s1.4-0.6,2.2-0.6c0.8,0,1.5,0.2,2.1,0.6c0.6,0.4,1,0.9,1.3,1.6c0.3,0.7,0.4,1.4,0.4,2.2S129.3,172.8,129,173.7z"/>
	<path class="st0" d="M155,181.3c1.4,0,2.8,0,4.2,0c1.2,0,2.5,0,3.9,0c0-0.8,0-1.5,0-2s0-1.2,0.1-2l0.4-6.6c0.1-0.9,0.1-1.6,0.1-2.2
		s0-1,0-1.4c0-0.9-0.1-1.7-0.4-2.5c-0.3-0.8-0.8-1.5-1.5-2.1s-1.6-1.1-2.6-1.3s-2.1-0.4-3.2-0.4c-0.6,0-1.1,0-1.7,0.1
		s-1,0.2-1.5,0.3c-0.4,0.1-0.8,0.3-1.2,0.4s-0.7,0.3-1,0.6s-0.6,0.5-0.9,0.7c-0.3,0.3-0.6,0.7-1.1,1.2c0.1-2.4,0.2-4,0.3-4.7
		l0.4-4.7c-1.2,0-2.6,0-4,0c-1,0-2.4,0-4,0c0,2,0,4-0.1,6.2s-0.1,4.3-0.3,6.6c-0.2,3.5-0.4,6.5-0.6,9.1c-0.1,1.3-0.2,2.8-0.5,4.8
		c1.6,0,3,0,4.2,0c1.1,0,2.4,0,3.7,0c0.1-2.6,0.2-4.4,0.2-5.6c0.1-2.2,0.3-3.8,0.6-4.9c0.2-0.9,0.5-1.6,0.8-2.1
		c0.4-0.6,0.8-1,1.4-1.3c0.6-0.3,1.3-0.5,2-0.5c0.8,0,1.5,0.2,2,0.7s0.8,1.4,0.8,2.6c0,1.1-0.1,2.8-0.3,5
		C155.4,177.6,155.2,179.6,155,181.3z"/>
	<path class="st0" d="M182.4,181.3c1.3,0,2.7,0,4.2,0c1.1,0,2.4,0,3.7,0c0-1.2,0-2.5,0.1-3.9l0.3-7.1c0.1-1.6,0.2-2.7,0.2-3.2
		c0-0.7-0.1-1.3-0.2-2s-0.4-1.2-0.8-1.8s-0.9-1-1.5-1.4s-1.3-0.7-2.2-0.9s-1.8-0.3-2.7-0.3c-0.7,0-1.3,0-1.9,0.1s-1.2,0.2-1.7,0.4
		s-1,0.4-1.5,0.7s-0.8,0.5-1.2,0.8s-0.7,0.7-1.1,1.1l0.2-2.7c-1.2,0-2.5,0-3.8,0c-1.1,0-2.5,0-4,0c0,3.2-0.2,6.6-0.4,10.1
		s-0.5,6.8-0.9,9.8c1.5,0,2.9,0,4.2,0c1.2,0,2.5,0,3.8,0c0.1-2.2,0.2-4.4,0.3-6.6c0.1-2.2,0.4-3.7,0.8-4.7s0.9-1.7,1.6-2.2
		c0.7-0.5,1.4-0.7,2.1-0.7c0.9,0,1.6,0.3,2.1,0.9c0.6,0.6,0.9,1.6,0.9,3.1c0,1-0.1,2.6-0.2,4.9C182.7,178.3,182.6,180.1,182.4,181.3
		z"/>
	<path class="st0" d="M228.5,166.3c0.5-0.7,0.8-1.4,1-2.1s0.3-1.6,0.3-2.5c0-0.8-0.1-1.5-0.3-2.2s-0.5-1.3-0.8-1.8s-0.8-1-1.4-1.4
		s-1.2-0.8-2-1s-1.7-0.5-2.7-0.6c-1.3-0.1-2.8-0.2-4.5-0.2c-1.4,0-2.9,0-4.4,0.1s-2.8,0.1-3.8,0.1s-2.3,0-3.9-0.1
		c0,1.6,0,3.7-0.1,6.4s-0.1,5.2-0.2,7.7s-0.2,4.6-0.4,6.4s-0.3,3.9-0.6,6.2c2,0,3.3,0,4.1,0c0.7,0,2.1,0,4.2,0
		c0-3.7,0.1-7.5,0.3-11.3c0.1-3.8,0.3-7.1,0.4-9.8c0.7,0,1.2,0,1.7,0s1,0,1.4,0c1.3,0,2.3,0.1,3,0.3s1.1,0.5,1.4,0.9
		s0.4,0.9,0.4,1.5c0,0.7-0.2,1.3-0.6,1.9s-1,1-1.8,1.3s-1.6,0.4-2.6,0.4c-0.7,0-1.4-0.1-2.1-0.2l2,5.5c0.6,1.7,1.1,3,1.4,3.9
		c0.2,0.4,0.3,1,0.6,1.8c0.5,1.8,0.9,3.1,1.1,3.8c2.1,0,3.7,0,4.6,0c0.7,0,2.2,0,4.3,0c-0.3-0.7-0.5-1.2-0.6-1.5l-2.6-5.7
		c-0.3-0.7-0.6-1.4-0.9-2.1l-1-2.5c1.3-0.5,2.3-1,3-1.5S228,167,228.5,166.3z"/>
	<path class="st0" d="M237.2,183.9c-0.3,0.4-0.6,0.7-0.8,0.9s-0.6,0.3-1,0.5s-0.9,0.2-1.4,0.2s-1-0.1-1.6-0.2
		c-0.6-0.1-1.4-0.4-2.2-0.8c0.1,0.8,0.4,2.7,0.8,5.8c0.7,0.2,1.2,0.3,1.6,0.3s0.9,0.1,1.6,0.2s1.2,0.1,1.6,0.1
		c0.9,0,1.8-0.1,2.6-0.3s1.5-0.4,2.1-0.7c0.5-0.2,0.9-0.5,1.3-0.8c0.4-0.4,0.9-0.8,1.2-1.2c0.4-0.5,0.8-1.2,1.3-2.1l6.8-15.8
		l3.8-8.5c-1.9,0-3.2,0-3.9,0c-0.8,0-2.1,0-3.7,0l-2.1,5.4l-1.3,3.6c-0.3,0.7-0.5,1.4-0.6,1.9s-0.3,1-0.4,1.4l-0.4,1.6
		c-0.2-1.2-0.3-2.2-0.5-2.9c-0.3-1.4-0.8-3.3-1.5-5.8s-1.1-4.2-1.4-5.2c-1.6,0-2.8,0-3.7,0c-0.8,0-2.1,0-4.1,0l3.1,9.2l3.7,11.1
		c-0.1,0.5-0.3,0.9-0.4,1.2C237.7,183.2,237.5,183.5,237.2,183.9z"/>
	<path class="st0" d="M272.3,181.3c1.3,0,2.5,0,3.8,0c0.1-4.1,0.3-7.5,0.4-10s0.3-4.2,0.3-4.9c0-1.4-0.4-2.5-1.1-3.3s-1.7-1.3-3-1.7
		c-1.3-0.3-2.7-0.5-4.2-0.5c-2.7,0-5.9,0.4-9.7,1.2c-0.1,1-0.2,1.8-0.3,2.3s-0.2,1.4-0.5,2.7c3.3-1.3,6.1-1.9,8.3-1.9
		c0.8,0,1.4,0.1,1.8,0.4c0.4,0.3,0.6,0.6,0.6,1.1c0,0.2,0,0.4-0.1,0.5c-0.1,0.2-0.2,0.3-0.3,0.5s-0.3,0.3-0.6,0.4s-0.6,0.2-1.2,0.4
		c-0.6,0.1-1.2,0.3-1.9,0.4c-1.6,0.3-3,0.6-4,1s-1.9,0.7-2.5,1.1c-0.6,0.4-1.1,0.9-1.6,1.4c-0.5,0.6-0.8,1.1-1,1.7s-0.3,1.2-0.3,1.8
		c0,1,0.3,2,0.9,3s1.4,1.7,2.5,2.2s2.4,0.7,4,0.7c1,0,2.1-0.1,3.2-0.3c0.5-1.9,1-3.4,1.3-4.4c-0.5,0.2-1,0.3-1.3,0.3
		s-0.6,0.1-0.9,0.1c-0.8,0-1.3-0.2-1.7-0.5s-0.5-0.7-0.5-1.1c0-0.3,0.1-0.5,0.2-0.8c0.1-0.2,0.3-0.5,0.6-0.7c0.3-0.2,0.6-0.4,1-0.5
		s0.9-0.3,1.6-0.5s1.2-0.4,1.5-0.5s0.7-0.3,1.2-0.5c-0.2,4.5-0.4,7.4-0.6,8.9C269.8,181.3,271.1,181.3,272.3,181.3z"/>
	<path class="st0" d="M303,163.4c-0.4-0.6-0.9-1-1.5-1.4s-1.3-0.7-2.2-0.9s-1.8-0.3-2.7-0.3c-0.7,0-1.3,0-1.9,0.1s-1.2,0.2-1.7,0.4
		s-1,0.4-1.5,0.7s-0.8,0.5-1.2,0.8s-0.7,0.7-1.1,1.1l0.2-2.7c-1.2,0-2.5,0-3.8,0c-1.1,0-2.5,0-4,0c0,3.2-0.2,6.6-0.4,10.1
		s-0.5,6.8-0.9,9.8c1.5,0,2.9,0,4.2,0c1.2,0,2.5,0,3.8,0c0.1-2.2,0.2-4.4,0.3-6.6c0.1-2.2,0.4-3.7,0.8-4.7s0.9-1.7,1.6-2.2
		s1.4-0.7,2.1-0.7c0.9,0,1.6,0.3,2.1,0.9c0.6,0.6,0.9,1.6,0.9,3.1c0,1-0.1,2.6-0.2,4.9c-0.1,2.3-0.3,4.1-0.4,5.3c1.3,0,2.7,0,4.2,0
		c1.1,0,2.4,0,3.7,0c0-1.2,0-2.5,0.1-3.9l0.3-7.1c0.1-1.6,0.2-2.7,0.2-3.2c0-0.7-0.1-1.3-0.2-2S303.5,163.9,303,163.4z"/>
	<path class="st0" d="M201.5,96V33.6h72.2c6.4,0,6.7,8.2,6.7,10.1s-0.3,11.2-7,11.2h-58.2l56.1,70.4H310l-34.5-43.4h11.9
		c19.1,0,22.5-32.2,22.5-39.4c0-7.5-3.7-36.8-24.2-36.8H171.1v84.5c0,10.7-26.7,11-31.5,11s-25.8-0.3-25.8-8.7V54.9H82.9l-0.1,43
		c0,23.3,36.6,30.9,59.1,30.9C158.1,128.8,201.5,123.5,201.5,96z"/>
	<path class="st1" d="M133.9,212.6l-0.8,0.2l-2.2-0.4l-1.5,0.2c0-0.4-0.1-0.6-0.4-0.6c-0.3,0-0.4,0.2-0.4,0.6h-0.2
		c0-0.7-0.1-1-0.4-1h-1l-0.2,0.2v-0.2l-0.2-0.2h-0.2l-0.2,0.2l0.2,0.8l0.2-0.2l0.4,0.4v0.2c0,0.2-0.9,0.7-2.7,1.5v0.8l0.2,1.2
		c0.8,0.5,1.2,1.2,1.2,2.1h0.2v-0.8l0.4,0.4v1h-0.4l0.2,0.6v1h-0.2v-0.8h-0.4l-0.2,0.2l0.2,0.2l-0.8,3.9l0.2,0.2l-0.5,2.9l0.6,0.8
		l-0.3,1.7l1.6,0.8h0.2l0.2-0.2c0.5-1.4,0.8-2.1,1.1-2.1l-0.2-1l0.1-3.5l3.4-1.5c2-1,3.5-2.8,4.5-5.4h0.2v0.4h0.2l0.5-1.2v-0.2
		l-0.2-0.2l0.2-1.5C135.8,213.1,135,212.6,133.9,212.6z M125.5,221.9h-0.4v-0.4l0.2-0.2l-0.2-0.2v-0.2h0.4V221.9z M128.6,217
		c0-0.6,1.4-1.1,4.2-1.2h0.6c-1.3,1.7-2.9,3-4.7,3.7h-0.4L128.6,217z M128.5,220.5h-0.4v-0.2l0.2-0.2c3.1-1.6,4.9-2.7,5.3-3.5h0.2
		C132.3,218.5,130.5,219.9,128.5,220.5z"/>
	<path class="st1" d="M149.5,213.7h-0.2c-0.3,0-0.5-0.6-0.6-1.7l-0.8,0.2c-0.6,4.6-1,6.8-1.2,6.8l1-7.1h-0.6v0.2l0.2,0.2v0.8h-0.2
		l-0.2-0.2v1.5l0.2,0.2h-0.4v0.2h0.4v0.4h-0.4v0.4l0.2,0.2h-0.5v0.2l0.2,1.5h-0.4l0.2,0.2l-0.2,1h-2.1l-3.1,0.2l1-5.6v-0.2l-0.2-0.2
		c-0.3,0-0.4,0.2-0.4,0.6l-0.6-0.2c0-0.8-0.1-1.2-0.4-1.2h-0.8v0.4h-0.2v-0.6h-0.2l-0.2,0.6h0.2l-0.6,2.3v0.6l0.2,0.2h-0.2
		c-0.7,2.1-1.3,5.5-1.9,10.2l0.2,0.8h0.2l0.2-0.2h0.2l0.2,0.2v0.2l-0.2,0.2v0.6l0.4,0.4l0.2-1.5h0.2c0,1.1,0.1,1.7,0.4,1.7h0.6
		c0.4-1.1,0.8-3.3,1.2-6.6l1.9,0.2l2.7-0.2h0.2c-0.8,3.7-1.2,6.1-1.2,7.1c0,0.4,0.1,0.6,0.4,0.6h0.2v-0.8h0.2c0,0.8,0.1,1.2,0.4,1.2
		h0.6l0.6-2.1h0.2v1.7l-0.2,0.2l0.2,0.2h0.2c1.4-6.4,2.4-12,3.1-16.8h-0.2C149.7,213.1,149.5,213.3,149.5,213.7z M138.3,220.8h-0.2
		V220h0.2V220.8z M138.7,218.3l-0.2,0.8h-0.2v-0.2l0.2-1h0.2V218.3z M138.9,217.7h-0.2v-0.9h0.2V217.7z M139.4,215l-0.2,1.7H139
		v-0.4l0.2-1.7h0.2V215z M139.6,214.4h-0.2v-1.5h0.2V214.4z M145.8,224.5h-0.2v-0.8h0.2V224.5z M146.2,222.4l-0.2,1h-0.2v-0.2
		l0.2-1.2h0.2V222.4z M147.2,226.2l-0.2,1.5h-0.2v-0.6l0.2-1h0.2V226.2z"/>
	<rect x="136.9" y="227" class="st0" width="0.2" height="1"/>
	<path class="st1" d="M164.6,219.6h-0.2l-0.6-4.6h0.2l0.2,0.2h0.4l-0.8-1.2v-0.2l0.2-0.2c-1.4-1-2.9-1.5-4.6-1.5
		c-2.6,0.3-3.9,0.8-3.9,1.5h0.2l1.5-0.8c-3.2,3.1-5.1,5.7-5.6,7.7h-0.2v-0.2c0.6-1.7,1.5-3.2,2.5-4.6v-0.2c-2.2,2.9-3.3,4.9-3.3,6
		v0.4l0.2,1.5l-0.2,0.2l0.8,1.2c0.9,2.6,2.9,3.9,6.2,3.9h0.2l1-0.2c1.9-1.1,3.4-2.4,4.4-3.7H163c1.4-2.8,2.1-4.6,2.1-5.4v-0.8
		C164.8,218.6,164.6,218.9,164.6,219.6z M151.3,223.1h-0.2v-1.7h0.2V223.1z M153.2,219.8l0.6-1.2h0.2l-0.6,1.2H153.2z M155.3,227.5
		l-1-0.6v-0.2l1,0.6V227.5z M155.7,225.8h-0.2c-1.2-0.8-1.9-1.8-1.9-2.9c1.1-3.9,2.2-5.8,3.3-5.8l1.5-1.2l-0.2-0.2v-0.2l0.2,0.2
		l0.8-0.4v0.2h0.2l0.2-0.2h0.2c1.4,0.2,2.1,0.4,2.1,0.8v1.7c0,0.7-0.3,1.8-1,3.3C158.9,224.2,157.2,225.8,155.7,225.8z M160.3,223.1
		h-0.2l0.8-1h0.2L160.3,223.1z M161.7,221.9h-0.6l0.8-2.1h0.2l0.2,0.6L161.7,221.9z M163.6,220.8l-0.2,0.8h-0.2v-0.4l0.2-0.6h0.2
		V220.8z"/>
	<rect x="164.5" y="212.5" class="st0" width="0.4" height="1"/>
	<path class="st1" d="M178.5,213.1l-0.4-0.6h0.6v-0.4l-0.6-0.2l-11.2,0.4c-1.7,0-2.5,0.3-2.5,1l0.2,0.2l-0.2,1l0.6,0.4l1.2-0.2h0.2
		l0.2,0.2l3.3-0.4v0.6h-3.1l-0.2,0.2v-0.2l-1,0.2v0.2l2.9,0.2l1.5-0.2c-0.3,2.7-0.6,4.2-0.8,4.4v2.7c-0.4,0-0.6,0.6-0.6,1.7h0.4v0.2
		c0,0.3-0.2,0.4-0.6,0.4v0.2h0.4v1l-0.6,0.2l0.4,1.5h-0.2l-0.2-0.2c0,0.9,0.3,1.9,0.8,3.1h0.2l0.2-0.2l0.8,0.6h0.4v-0.2l-0.4-3.3
		v-0.2c0-0.3,0.2-0.4,0.6-0.4v-0.4h0.2v0.2l-0.2,2.1c0.2,1.4,0.5,2.1,0.8,2.1h0.2l-0.6-2.7c1.2-7.9,2.1-12.3,2.5-13.3h-0.2l0.2-0.6
		l1.5-0.2C177.1,214.1,178.2,213.8,178.5,213.1z M169.4,226.1v0.2l-0.2,0.2h0.2l-0.4,0.6v0.4l0.2,1h-0.4l0.4-4.6h0.2l0.2,0.8
		l-0.4,0.8v0.2L169.4,226.1z M177.7,212.6h-0.8v-0.2h0.8V212.6z"/>
	<path class="st1" d="M191.1,219.6h-0.2l-0.6-4.6h0.2l0.2,0.2h0.4l-0.8-1.2v-0.2l0.2-0.2c-1.4-1-2.9-1.5-4.6-1.5
		c-2.6,0.3-3.9,0.8-3.9,1.5h0.2l1.5-0.8c-3.2,3.1-5.1,5.7-5.6,7.7h-0.2v-0.2c0.6-1.7,1.5-3.2,2.5-4.6v-0.2c-2.2,2.9-3.3,4.9-3.3,6
		v0.4l0.2,1.5l-0.2,0.2l0.8,1.2c0.9,2.6,2.9,3.9,6.2,3.9h0.2l1-0.2c1.9-1.1,3.4-2.4,4.4-3.7h-0.3c1.4-2.8,2.1-4.6,2.1-5.4v-0.8
		C191.2,218.6,191.1,218.9,191.1,219.6z M177.8,223.1h-0.2v-1.7h0.2V223.1z M179.7,219.8l0.6-1.2h0.2l-0.6,1.2H179.7z M181.8,227.5
		l-1-0.6v-0.2l1,0.6V227.5z M182.2,225.8H182c-1.2-0.8-1.9-1.8-1.9-2.9c1.1-3.9,2.2-5.8,3.3-5.8l1.5-1.2l-0.2-0.2v-0.2l0.2,0.2
		l0.8-0.4v0.2h0.2l0.2-0.2h0.2c1.4,0.2,2.1,0.4,2.1,0.8v1.7c0,0.7-0.3,1.8-1,3.3C185.4,224.2,183.7,225.8,182.2,225.8z M186.7,223.1
		h-0.2l0.8-1h0.2L186.7,223.1z M188.2,221.9h-0.6l0.8-2.1h0.2l0.2,0.6L188.2,221.9z M190.1,220.8l-0.2,0.8h-0.2v-0.4l0.2-0.6h0.2
		V220.8z"/>
	<polygon class="st0" points="197.6,226 197.8,226 198.3,225.6 198.1,225.6 	"/>
	<rect x="208.9" y="214.3" class="st0" width="0.2" height="0.8"/>
	<path class="st1" d="M231.1,219.7v-0.2l1.2-0.2v-0.2h-1.5l-1.7-7.3c-1,0-1.6-0.2-1.7-0.6c-0.8,0-1.7,0.3-2.7,0.8v-0.2l0.2-0.2h-0.8
		l-1,2.9c0.4,0,0.6,0.1,0.6,0.4v0.2h-0.2l-0.2-0.2h-0.2l-0.4,0.8v0.2l0.2,0.2h-0.2l-0.2-0.2l-0.2,1v0.8h0.2l0.2-0.2l-0.2,1
		c-0.3,0-0.4-0.2-0.4-0.6h-0.2l-3.5,8.5l0.6,0.6l-0.2,1.1c0,0-0.1,0-0.1-0.1c-2.6-3.6-4.1-5.4-4.4-5.4v-0.8l1.2-0.4
		c1.1-0.5,2-1.5,2.7-3.1v-0.4l-2.1,1.9h-0.2l2.1-2.9v-1.1c0-1.9-1.5-3.2-4.4-3.7h-2.5l-3.7,1.9c0,0.4,0.3,0.6,0.8,0.6v0.2
		c-0.6,0-0.8,0.1-0.8,0.4h0.2l1.2-0.4h0.4v0.2c-0.8,0.1-1.2,0.3-1.2,0.6v0.2h1.2v0.4h0.2c0-0.6,0.1-0.8,0.4-0.8l-1,4.4h-0.2V219
		h-0.2l-0.2,1.1h-0.4v-0.2l0.2-0.2v-0.2c0-0.3-0.7-0.6-2.2-1h-0.2l-0.2,0.2l-0.2-0.2h-0.2c0,0.3,0.3,0.4,1,0.4v0.2l-5.5,0.6
		l-2.3-0.2v0.2l-0.2,0.2l1.1,1.5h1.2l0.2-0.2v0.4c-1.4,0.1-2.1,0.3-2.1,0.6v0.2l0.2,0.2c0.4,0,0.6,0.1,0.6,0.4h1.5l-2.6,2.7h0.2
		c0.9-0.6,1.9-1.6,3-2.9h0.2v0.2c-1.9,2.5-3.4,3.7-4.3,3.7h-0.4v-0.2h0.4v-0.4c-1.7-0.8-2.5-2.1-2.3-3.9l0.7-2.3
		c1.8-2.9,3.4-4.4,4.8-4.4c0.6,0,1.3,0.3,2,0.8h0.2l0.2-0.2c0,0.4,0.1,0.6,0.3,0.6h0.4v-0.2l-0.1-1h0.2c0.3,0,0.4,0.3,0.3,0.8h0.4
		l-0.3-1.2c0.1-1.1-1-1.9-3.3-2.5v0.2h-0.2l-0.2-0.2c-2.2,0-3.5,0.3-3.9,1l0.6-0.2h0.2v0.2H197c-2.6,1.9-3.9,3.5-4,4.8h-0.2v-0.2
		l0.8-1.5v-0.4h-0.2c-0.9,1.7-1.4,3.1-1.5,4.2v0.4c-0.1,0.6-0.1,1.1-0.1,1.7c0,0.9,0.1,1.8,0.2,2.7c0.2,1.9,1.8,2.9,4.7,2.9v0.2
		h-0.4v0.2l0.4,0.4h1c0.8,0,1.6-0.3,2.4-0.8h0.4v1.5l-0.1,1h0.6l0.2-1.5h0.2c-0.1,1.2-0.1,1.9,0.2,1.9h0.6c0-0.5,0.4-0.9,0.9-1
		l0.3-0.3l0.5-0.4v-1.7l0.3-1v-0.2l-0.2-0.2l1-3.3c0.1-1.1,0.9-1.7,2.3-1.7v-0.4l-1.9,0.2h-0.2v-0.2l3-0.4l-0.9,4.3v0.8l-0.2,1.9
		l0.9,1.2c0.5,0.1,0.8-0.1,0.8-0.6h0.2c0,0.6,0.1,0.8,0.4,0.8h0.6v-0.4c-0.3-0.3-0.2-0.7,0.2-1c0.2-0.3,0.3-1.1,0.2-2.5
		c0.1-1.7,0.3-2.5,0.8-2.5l1,2.1c1.1,2.3,3,4.6,5.8,6.8h0.2l0.2-0.2l0.4,0.6h0.2l1-0.6h0.2c0-0.4-0.3-0.9-1-1.7v-0.2l1,0.8v-0.2
		c-0.4-0.6-0.8-1.1-1.2-1.4c0-0.9,0.2-1.4,0.6-1.4h0.2l-0.4,1.2l0.6,0.4v-0.2h0.2l0.2,0.2h0.6v-0.4c0.5-0.4,0.9-1.4,1.2-2.9
		c0-0.9,1.5-1.6,4.4-2.1v-0.4l-1,0.2l-0.8-0.2l-1.5,0.4v-0.4l4.6-1v1.2l0.2,0.2h-0.2l-0.2-0.2h-0.2v0.8l0.2-0.2h0.2l-0.2,0.2v0.8
		h0.2v-0.6h0.4v0.6l-0.2,0.2c0.3,0,0.5,0.6,0.6,1.9v0.2l-0.3-0.2l0.4,2.5h0.2v-0.8h0.2l1,3.5c0.3,0,0.4-0.2,0.4-0.6h0.2l0.2,0.2h0.2
		L231,231v-0.2c0.3,0,0.4,0.2,0.4,0.6h0.4l-0.6-3.1h0.2l0.2,0.2v-1.2l-0.2-2.5l0.2-0.2h-0.2l0.2-0.2l-0.2-1.2l0.2-0.6l-0.4-1.2
		c1.4-0.2,2.1-0.5,2.1-0.8v-0.2h-1.7C231.7,219.9,231.5,219.7,231.1,219.7z M199.5,214.2h1.5v0.2h-1.5V214.2z M198.6,228.5h-1v-0.2
		h1V228.5z M200.8,226.9l-1.8,0.8l1.6-1.2h0.2V226.9z M208.6,221.6h-0.2v-0.8h0.2V221.6z M216.5,217.3l-1,1.2h-0.2l1-1.5h0.2V217.3z
		 M216.9,215.6h0.2v0.8l-0.2,0.2h-0.2L216.9,215.6z M216.5,215v0.4c-0.3-0.1-0.6-0.4-0.8-1L216.5,215z M211.7,219.6h-0.2l1-4.8
		l1.2-0.4c1.7,0.5,2.5,1,2.5,1.5v0.4C215.4,217.4,213.9,218.5,211.7,219.6z M214.6,227.2V227c0.3,0.1,0.6,0.4,0.8,1L214.6,227.2z
		 M216.5,229.3l-0.8-0.6v-0.2l0.8,0.6V229.3z M221.5,221h-0.2l0.2-0.8h0.4L221.5,221z M222.1,219.7h-0.2v-0.4l0.2-0.2h0.2
		L222.1,219.7z M223.6,220.6l-0.2,0.2h-0.2l0.2-0.8h0.2V220.6z M223.8,219.3l-0.2-0.8h0.2l0.2,0.2l0.4-1.5h0.2v0.2l-0.6,1.9
		L223.8,219.3L223.8,219.3z M225.5,221h-0.4v-0.2l2.1-0.4h0.2C227.3,220.6,226.7,220.9,225.5,221z M225.1,220.4h-0.4l1.7-4.4h0.2
		l0.8,3.1C227.2,220,226.4,220.4,225.1,220.4z M229.4,227.6l-0.6,0.2v-0.4l0.6-0.2V227.6z M231.3,228h-0.2l-0.2-0.8v-0.4h0.2
		l0.2,0.8V228z"/>
	<polygon class="st0" points="228.4,225.4 228,225.4 228.2,226.6 228.4,226.6 	"/>
	<path class="st1" d="M243.8,212.6l-0.8,0.2l-2.2-0.4l-1.5,0.2c0-0.4-0.1-0.6-0.4-0.6s-0.4,0.2-0.4,0.6h-0.2c0-0.7-0.1-1-0.4-1h-1
		l-0.2,0.2v-0.2l-0.2-0.2h-0.2l-0.2,0.2l0.2,0.8l0.2-0.2l0.4,0.4v0.2c0,0.2-0.9,0.7-2.7,1.5v0.8l0.2,1.2c0.8,0.5,1.2,1.2,1.2,2.1
		h0.2v-0.8l0.4,0.4v1h-0.4l0.2,0.6v1h-0.2v-0.8h-0.4l-0.2,0.2l0.2,0.2l-0.8,3.9l0.2,0.2l-0.5,2.9l0.6,0.8l-0.5,1.8l1.6,0.8h0.2
		l0.2-0.2c0.5-1.4,0.8-2.1,1.1-2.1l-0.2-1l0.1-3.5l3.4-1.5c2-1,3.5-2.8,4.5-5.4h0.2v0.4h0.2l0.5-1.2v-0.2l-0.2-0.2l0.2-1.5
		C245.7,213.1,244.9,212.6,243.8,212.6z M235.5,221.9h-0.4v-0.4l0.2-0.2l-0.2-0.2v-0.2h0.4V221.9z M238.5,217c0-0.6,1.4-1.1,4.2-1.2
		h0.6c-1.3,1.7-2.9,3-4.7,3.7h-0.4L238.5,217z M238.4,220.5H238v-0.2l0.2-0.2c3.1-1.6,4.9-2.7,5.3-3.5h0.2
		C242.2,218.5,240.5,219.9,238.4,220.5z"/>
	<rect x="246.8" y="227" class="st0" width="0.2" height="1"/>
	<path class="st1" d="M259.9,213.1c-0.3,0-0.4,0.2-0.4,0.6h-0.2c-0.3,0-0.5-0.6-0.6-1.7l-0.8,0.2c-0.6,4.6-1,6.8-1.2,6.8l1-7.1h-0.6
		v0.2l0.2,0.2v0.8h-0.2l-0.2-0.2v1.5l0.2,0.2h-0.4v0.2h0.4v0.4h-0.4v0.4l0.2,0.2h-0.4v0.2l0.2,1.5h-0.4l0.2,0.2l-0.2,1h-2.1
		l-3.1,0.2l1-5.6v-0.2l-0.2-0.2c-0.3,0-0.4,0.2-0.4,0.6l-0.6-0.2c0-0.8-0.1-1.2-0.4-1.2h-0.8v0.4h-0.2v-0.6h-0.2l-0.2,0.6h0.2
		l-0.6,2.3v0.6l0.2,0.2h-0.5c-0.7,2.1-1.3,5.5-1.9,10.2l0.2,0.8h0.2l0.2-0.2h0.2l0.2,0.2v0.2l-0.2,0.2v0.6l0.4,0.4l0.2-1.5h0.2
		c0,1.1,0.1,1.7,0.4,1.7h0.6c0.4-1.1,0.8-3.3,1.2-6.6l1.9,0.2l2.7-0.2h0.2c-0.8,3.7-1.2,6.1-1.2,7.1c0,0.4,0.1,0.6,0.4,0.6h0.2v-0.8
		h0.2c0,0.8,0.1,1.2,0.4,1.2h0.6l0.6-2.1h0.2v1.7l-0.2,0.2l0.2,0.2h0.2c1.4-6.4,2.4-12,3.1-16.8h0.1V213.1z M248.2,220.8H248V220
		h0.2V220.8z M248.6,218.3l-0.2,0.8h-0.2v-0.2l0.2-1h0.2V218.3z M248.9,217.7h-0.2v-0.9h0.2V217.7z M249.3,215l-0.2,1.7h-0.2v-0.4
		l0.2-1.7h0.2V215z M249.5,214.4h-0.2v-1.5h0.2V214.4z M255.7,224.5h-0.2v-0.8h0.2V224.5z M256.1,222.4l-0.2,1h-0.2v-0.2l0.2-1.2
		h0.2V222.4z M257.2,226.2l-0.2,1.5h-0.2v-0.6l0.2-1h0.2V226.2z"/>
	<polygon class="st0" points="264.2,221.7 264.2,221.9 264.4,222.1 268.2,221.7 268.2,221.5 268,221.5 266.1,221.8 266.1,221.6 	"/>
	<path class="st1" d="M270.9,214.7c0.8,0,1.3-0.5,1.6-1.8l-1-0.7l-7.3,0.1h-0.6l-0.2,0.2l-0.2-0.2H263l-0.2,0.2l-0.2-0.2h-0.2v0.6
		l-0.3,1.9l0.1,1v0.4H262l-0.2-0.2l-0.5,3.5v0.2l0.2,0.2l-0.5,1h0.2l-0.7,3.5v0.4h0.2v-0.4h0.2v0.6h0.2l0.1-1.2H261l-0.2,0.2l0.3-1
		h0.4l-0.1,2.1l0.2,0.2c-0.2,0-0.4,0.3-0.5,1h-0.2l0.1-1h-0.4l0.2,0.2l-0.6,2.2v0.6l0,0c0,0.3,0.3,0.5,1,0.6h0.2l9.7-1.4v-0.4
		l-1.7-0.1v-0.2c1.3,0.1,2.1-0.1,2.5-0.7v-0.6l-0.2-0.2h0.4v-0.4l-1-0.3c-1.7-0.1-4.6,0.1-8.8,0.7l0.4-2.9h0.2l-0.1,1.9h0.2l1-2.6
		l-0.2-0.2l2.1-0.1c3.7-0.5,5.7-1.1,6-1.9v-0.2l-1.4-0.3v-0.2h0.4v-0.2l-0.2-0.2l-5.6,0.5h-0.2l0.4-2.7l4.8-0.5v-0.2h-0.4l-1.5,0.1
		H268l-0.2-0.2l-1.3,0.1l-1-0.1V215L270.9,214.7z M261.3,222.7h-0.2l0.1-1.5h0.2L261.3,222.7z"/>
	<rect x="114.8" y="199.2" class="st1" width="163.2" height="1.7"/>
</g>
</svg>
